<svg xmlns="http://www.w3.org/2000/svg" width="27" height="27" viewBox="0 0 27 27">
    <g fill="none" fill-rule="evenodd">
        <g fill="#000" fill-rule="nonzero">
            <g>
                <path d="M14 15c-2.206 0-4 1.794-4 4s1.794 4 4 4 4-1.794 4-4-1.794-4-4-4zm0 6.4c-1.323 0-2.4-1.077-2.4-2.4s1.077-2.4 2.4-2.4 2.4 1.077 2.4 2.4-1.077 2.4-2.4 2.4z" transform="translate(-19 -15) translate(19 15)"/>
                <path d="M26.327 11.664l-.178-.546h-2.315v-3.97H21.41V0l-2.632 1.982c-1.023.77-2.29 1.194-3.569 1.194h-4.872c-2.347 0-4.301 1.72-4.679 3.971H3.166v3.97H.85l-.178.547C-1.163 17.27.842 23.373 5.66 26.85l.207.149h15.264l.207-.15c4.819-3.477 6.824-9.58 4.988-15.186zm-15.99-6.9h4.871c1.619 0 3.223-.536 4.518-1.511l.101-.077v3.971H7.273c.352-1.368 1.592-2.382 3.063-2.382zm-5.59 3.971h17.506v2.383H4.747V8.735zM20.62 25.412H6.38c-2.85-2.147-4.536-5.35-4.77-8.736h4.77v-1.588H1.609c.052-.795.185-1.593.403-2.382h22.978c.218.79.35 1.587.403 2.382h-4.774v1.588h4.771c-.234 3.386-1.92 6.59-4.77 8.736z" transform="translate(-19 -15) translate(19 15)"/>
            </g>
        </g>
    </g>
</svg>
